<?xml version="1.0" standalone="no"?>
<!DOCTYPE svg PUBLIC "-//W3C//DTD SVG 20010904//EN"
 "http://www.w3.org/TR/2001/REC-SVG-20010904/DTD/svg10.dtd">
<svg version="1.0" xmlns="http://www.w3.org/2000/svg"
 width="700.000000pt" height="700.000000pt" viewBox="0 0 700.000000 700.000000"
 preserveAspectRatio="xMidYMid meet">
<metadata>
Created by potrace 1.14, written by Peter Selinger 2001-2017
</metadata>
<g transform="translate(0.000000,700.000000) scale(0.100000,-0.100000)"
fill="#000000" stroke="none">
<path d="M3277 6994 c-1 -1 -38 -4 -82 -8 -133 -10 -220 -23 -435 -65 -154
-31 -472 -130 -597 -187 -28 -13 -54 -24 -57 -24 -16 0 -297 -144 -396 -203
-100 -61 -234 -148 -280 -184 -8 -6 -51 -40 -95 -74 -460 -358 -839 -858
-1070 -1414 -82 -197 -164 -471 -201 -670 -9 -49 -17 -97 -19 -105 -11 -59
-20 -136 -31 -255 -16 -165 -9 -608 10 -712 2 -10 7 -43 10 -74 4 -31 9 -67
11 -80 3 -13 7 -38 9 -54 17 -124 143 -572 185 -660 6 -11 22 -49 37 -85 34
-85 154 -325 200 -404 247 -413 587 -792 944 -1051 30 -22 57 -43 58 -47 2 -5
8 -8 13 -8 6 0 38 -19 72 -43 60 -42 138 -90 222 -138 52 -29 312 -159 320
-159 3 0 24 -9 48 -19 193 -87 586 -199 791 -226 27 -3 52 -8 55 -10 3 -1 40
-6 81 -10 41 -4 89 -8 105 -11 17 -2 94 -6 173 -10 l142 -6 0 831 0 831 118 0
119 0 58 148 c31 81 113 289 182 462 68 173 169 428 223 565 55 138 160 405
235 595 75 190 142 359 150 375 7 17 16 41 20 55 3 15 14 26 24 27 17 1 18
-48 18 -1123 0 -618 2 -1127 6 -1130 4 -4 556 -7 993 -4 l51 0 0 1953 0 1952
-663 0 c-423 0 -667 -4 -673 -10 -5 -6 -21 -39 -36 -75 -14 -36 -30 -74 -35
-85 -4 -11 -36 -87 -70 -170 -34 -82 -68 -163 -76 -180 -7 -16 -78 -190 -159
-385 -80 -195 -152 -368 -159 -385 -33 -76 -86 -203 -201 -480 l-124 -300 -1
1768 0 1768 -111 -3 c-61 -2 -111 -4 -112 -4z"/>
</g>
</svg>
